<svg width="70" height="69" viewBox="0 0 70 69" fill="none" xmlns="http://www.w3.org/2000/svg">
<g filter="url(#filter0_d_560_6463)">
<rect x="12.1603" y="11.1851" width="40.5359" height="40.5359" rx="11.1823" fill="#62AC3E" shape-rendering="crispEdges"/>
<path d="M32.4282 24.3371C34.4148 24.3371 36.0974 25.0265 37.4761 26.4052C38.8549 27.7839 39.5442 29.4666 39.5442 31.4531C39.5442 33.4397 38.8549 35.1223 37.4761 36.501C36.0974 37.8798 34.4148 38.5691 32.4282 38.5691C30.4417 38.5691 28.759 37.8798 27.3803 36.501C26.0015 35.1223 25.3122 33.4397 25.3122 31.4531C25.3122 29.4666 26.0015 27.7839 27.3803 26.4052C28.759 25.0265 30.4417 24.3371 32.4282 24.3371ZM29.3149 29.6741C29.3149 29.9261 29.4002 30.1374 29.5707 30.3079C29.7412 30.4784 29.9524 30.5636 30.2045 30.5636C30.4565 30.5636 30.6677 30.4784 30.8382 30.3079C31.0087 30.1374 31.094 29.9261 31.094 29.6741C31.094 29.4221 31.0087 29.2108 30.8382 29.0403C30.6677 28.8698 30.4565 28.7846 30.2045 28.7846C29.9524 28.7846 29.7412 28.8698 29.5707 29.0403C29.4002 29.2108 29.3149 29.4221 29.3149 29.6741ZM33.7625 29.6741C33.7625 29.9261 33.8477 30.1374 34.0182 30.3079C34.1887 30.4784 34.3999 30.5636 34.652 30.5636C34.904 30.5636 35.1152 30.4784 35.2857 30.3079C35.4562 30.1374 35.5415 29.9261 35.5415 29.6741C35.5415 29.4221 35.4562 29.2108 35.2857 29.0403C35.1152 28.8698 34.904 28.7846 34.652 28.7846C34.3999 28.7846 34.1887 28.8698 34.0182 29.0403C33.8477 29.2108 33.7625 29.4221 33.7625 29.6741ZM22.6437 25.2266V23.4476C22.6437 22.9584 22.8179 22.5396 23.1663 22.1912C23.5146 21.8428 23.9335 21.6686 24.4227 21.6686H26.2017C26.4537 21.6686 26.665 21.7538 26.8355 21.9243C27.0059 22.0948 27.0912 22.3061 27.0912 22.5581C27.0912 22.8101 27.0059 23.0214 26.8355 23.1919C26.665 23.3623 26.4537 23.4476 26.2017 23.4476H24.4227V25.2266C24.4227 25.4786 24.3374 25.6899 24.167 25.8604C23.9965 26.0308 23.7852 26.1161 23.5332 26.1161C23.2812 26.1161 23.0699 26.0308 22.8994 25.8604C22.7289 25.6899 22.6437 25.4786 22.6437 25.2266ZM26.2017 41.2376H24.4227C23.9335 41.2376 23.5146 41.0634 23.1663 40.7151C22.8179 40.3667 22.6437 39.9479 22.6437 39.4586V37.6796C22.6437 37.4276 22.7289 37.2163 22.8994 37.0459C23.0699 36.8754 23.2812 36.7901 23.5332 36.7901C23.7852 36.7901 23.9965 36.8754 24.167 37.0459C24.3374 37.2163 24.4227 37.4276 24.4227 37.6796V39.4586H26.2017C26.4537 39.4586 26.665 39.5439 26.8355 39.7144C27.0059 39.8849 27.0912 40.0961 27.0912 40.3481C27.0912 40.6002 27.0059 40.8114 26.8355 40.9819C26.665 41.1524 26.4537 41.2376 26.2017 41.2376ZM40.4337 41.2376H38.6547C38.4027 41.2376 38.1914 41.1524 38.021 40.9819C37.8505 40.8114 37.7652 40.6002 37.7652 40.3481C37.7652 40.0961 37.8505 39.8849 38.021 39.7144C38.1914 39.5439 38.4027 39.4586 38.6547 39.4586H40.4337V37.6796C40.4337 37.4276 40.519 37.2163 40.6895 37.0459C40.86 36.8754 41.0712 36.7901 41.3232 36.7901C41.5753 36.7901 41.7865 36.8754 41.957 37.0459C42.1275 37.2163 42.2127 37.4276 42.2127 37.6796V39.4586C42.2127 39.9479 42.0385 40.3667 41.6902 40.7151C41.3418 41.0634 40.923 41.2376 40.4337 41.2376ZM40.4337 25.2266V23.4476H38.6547C38.4027 23.4476 38.1914 23.3623 38.021 23.1919C37.8505 23.0214 37.7652 22.8101 37.7652 22.5581C37.7652 22.3061 37.8505 22.0948 38.021 21.9243C38.1914 21.7538 38.4027 21.6686 38.6547 21.6686H40.4337C40.923 21.6686 41.3418 21.8428 41.6902 22.1912C42.0385 22.5396 42.2127 22.9584 42.2127 23.4476V25.2266C42.2127 25.4786 42.1275 25.6899 41.957 25.8604C41.7865 26.0308 41.5753 26.1161 41.3232 26.1161C41.0712 26.1161 40.86 26.0308 40.6895 25.8604C40.519 25.6899 40.4337 25.4786 40.4337 25.2266ZM32.4282 34.5664C32.9916 34.5664 33.5141 34.4329 33.996 34.1661C34.4778 33.8992 34.8669 33.536 35.1634 33.0765C35.2524 32.9134 35.2487 32.7503 35.1523 32.5872C35.0559 32.4242 34.9114 32.3426 34.7187 32.3426H30.1377C29.945 32.3426 29.8005 32.4242 29.7041 32.5872C29.6077 32.7503 29.604 32.9134 29.693 33.0765C29.9895 33.536 30.3786 33.8992 30.8605 34.1661C31.3423 34.4329 31.8649 34.5664 32.4282 34.5664Z" fill="white"/>
</g>
<defs>
<filter id="filter0_d_560_6463" x="0.977958" y="0.00279927" width="68.4917" height="68.4917" filterUnits="userSpaceOnUse" color-interpolation-filters="sRGB">
<feFlood flood-opacity="0" result="BackgroundImageFix"/>
<feColorMatrix in="SourceAlpha" type="matrix" values="0 0 0 0 0 0 0 0 0 0 0 0 0 0 0 0 0 0 127 0" result="hardAlpha"/>
<feOffset dx="2.79558" dy="2.79558"/>
<feGaussianBlur stdDeviation="6.98895"/>
<feComposite in2="hardAlpha" operator="out"/>
<feColorMatrix type="matrix" values="0 0 0 0 0.356863 0 0 0 0 0.686275 0 0 0 0 0.298039 0 0 0 0.2 0"/>
<feBlend mode="normal" in2="BackgroundImageFix" result="effect1_dropShadow_560_6463"/>
<feBlend mode="normal" in="SourceGraphic" in2="effect1_dropShadow_560_6463" result="shape"/>
</filter>
</defs>
</svg>
