<svg width="64" height="64" viewBox="0 0 64 64" fill="none" xmlns="http://www.w3.org/2000/svg">
<g filter="url(#filter0_d_560_6469)">
<rect x="8.97241" y="8.94476" width="40.5359" height="40.5359" rx="11.1823" fill="#F9994C" shape-rendering="crispEdges"/>
<path d="M30.5749 18.9829C31.0661 18.4918 31.962 18.5913 32.576 19.2052L34.022 20.6512C34.1445 20.774 34.1422 20.9723 34.0448 21.1159C33.5027 21.915 33.5258 23.2679 34.3555 24.0977C35.1853 24.9273 36.5383 24.9505 37.3373 24.4084C37.4809 24.311 37.6792 24.3087 37.802 24.4312L39.248 25.8772C39.8618 26.4912 39.9614 27.3871 39.4703 27.8783L27.906 39.4427C27.4147 39.9338 26.5188 39.8342 25.9048 39.2203L24.4588 37.7744C24.3363 37.6515 24.3386 37.4532 24.436 37.3096C24.9782 36.5106 24.9549 35.1576 24.1253 34.3279C23.2956 33.4982 21.9426 33.4751 21.1436 34.0172C21 34.1146 20.8017 34.1168 20.6788 33.9944L19.2329 32.5484C18.619 31.9344 18.5194 31.0385 19.0105 30.5472L30.5749 18.9829ZM33.8853 28.0758C33.5171 28.4442 33.5172 29.0415 33.8853 29.4099L34.3307 29.8553C34.6991 30.2234 35.2964 30.2236 35.6648 29.8553C36.0332 29.487 36.033 28.8897 35.6648 28.5212L35.2194 28.0758C34.8509 27.7077 34.2537 27.7075 33.8853 28.0758ZM31.6618 25.8523C31.2934 26.2208 31.2934 26.818 31.6618 27.1864L32.1065 27.6311C32.4749 27.9995 33.0721 27.9995 33.4406 27.6311C33.8091 27.2626 33.8091 26.6655 33.4406 26.297L32.9959 25.8523C32.6274 25.4838 32.0302 25.4838 31.6618 25.8523ZM29.4376 23.6281C29.0693 23.9965 29.0694 24.5937 29.4376 24.9622L29.883 25.4076C30.2514 25.7757 30.8487 25.7758 31.2171 25.4076C31.5854 25.0392 31.5852 24.442 31.2171 24.0735L30.7717 23.6281C30.4032 23.2599 29.8059 23.2597 29.4376 23.6281Z" fill="white"/>
</g>
<defs>
<filter id="filter0_d_560_6469" x="0.585672" y="0.558023" width="62.9005" height="62.9005" filterUnits="userSpaceOnUse" color-interpolation-filters="sRGB">
<feFlood flood-opacity="0" result="BackgroundImageFix"/>
<feColorMatrix in="SourceAlpha" type="matrix" values="0 0 0 0 0 0 0 0 0 0 0 0 0 0 0 0 0 0 127 0" result="hardAlpha"/>
<feOffset dx="2.79558" dy="2.79558"/>
<feGaussianBlur stdDeviation="5.59116"/>
<feComposite in2="hardAlpha" operator="out"/>
<feColorMatrix type="matrix" values="0 0 0 0 1 0 0 0 0 0.813924 0 0 0 0 0.664675 0 0 0 1 0"/>
<feBlend mode="normal" in2="BackgroundImageFix" result="effect1_dropShadow_560_6469"/>
<feBlend mode="normal" in="SourceGraphic" in2="effect1_dropShadow_560_6469" result="shape"/>
</filter>
</defs>
</svg>
